<svg width="29" height="34" viewBox="0 0 29 34" fill="none" xmlns="http://www.w3.org/2000/svg">
<path d="M10.6667 0.333344C9.66669 0.333344 9.00002 1.00001 9.00002 2.00001V32C9.00002 33 9.66669 33.6667 10.6667 33.6667C11.6667 33.6667 12.3334 33 12.3334 32V2.00001C12.3334 1.00001 11.6667 0.333344 10.6667 0.333344ZM2.33335 17C1.33335 17 0.666687 17.6667 0.666687 18.6667V32C0.666687 33 1.33335 33.6667 2.33335 33.6667C3.33335 33.6667 4.00002 33 4.00002 32V18.6667C4.00002 17.6667 3.33335 17 2.33335 17ZM19 10.3333C18 10.3333 17.3334 11 17.3334 12V32C17.3334 33 18 33.6667 19 33.6667C20 33.6667 20.6667 33 20.6667 32V12C20.6667 11 20 10.3333 19 10.3333ZM27.3334 23.6667C26.3334 23.6667 25.6667 24.3333 25.6667 25.3333V32C25.6667 33 26.3334 33.6667 27.3334 33.6667C28.3334 33.6667 29 33 29 32V25.3333C29 24.3333 28.3334 23.6667 27.3334 23.6667Z" fill="#A5A5A5"/>
</svg>
