<svg width="70" height="24" viewBox="0 0 70 24" fill="none" xmlns="http://www.w3.org/2000/svg">
<g clip-path="url(#clip0_1367_329)">
<path d="M3.05469 10.6016H4.08594C4.59115 10.6016 5.00781 10.5182 5.33594 10.3516C5.66927 10.1797 5.91667 9.94792 6.07812 9.65625C6.24479 9.35938 6.32812 9.02604 6.32812 8.65625C6.32812 8.21875 6.25521 7.85156 6.10938 7.55469C5.96354 7.25781 5.74479 7.03385 5.45312 6.88281C5.16146 6.73177 4.79167 6.65625 4.34375 6.65625C3.9375 6.65625 3.57812 6.73698 3.26562 6.89844C2.95833 7.05469 2.71615 7.27865 2.53906 7.57031C2.36719 7.86198 2.28125 8.20573 2.28125 8.60156H0.835938C0.835938 8.02344 0.981771 7.4974 1.27344 7.02344C1.5651 6.54948 1.97396 6.17188 2.5 5.89062C3.03125 5.60938 3.64583 5.46875 4.34375 5.46875C5.03125 5.46875 5.63281 5.59115 6.14844 5.83594C6.66406 6.07552 7.0651 6.4349 7.35156 6.91406C7.63802 7.38802 7.78125 7.97917 7.78125 8.6875C7.78125 8.97396 7.71354 9.28125 7.57812 9.60938C7.44792 9.93229 7.24219 10.2344 6.96094 10.5156C6.6849 10.7969 6.32552 11.0286 5.88281 11.2109C5.4401 11.388 4.90885 11.4766 4.28906 11.4766H3.05469V10.6016ZM3.05469 11.7891V10.9219H4.28906C5.01302 10.9219 5.61198 11.0078 6.08594 11.1797C6.5599 11.3516 6.93229 11.5807 7.20312 11.8672C7.47917 12.1536 7.67188 12.4688 7.78125 12.8125C7.89583 13.151 7.95312 13.4896 7.95312 13.8281C7.95312 14.3594 7.86198 14.8307 7.67969 15.2422C7.5026 15.6536 7.25 16.0026 6.92188 16.2891C6.59896 16.5755 6.21875 16.7917 5.78125 16.9375C5.34375 17.0833 4.86719 17.1562 4.35156 17.1562C3.85677 17.1562 3.39062 17.0859 2.95312 16.9453C2.52083 16.8047 2.13802 16.6016 1.80469 16.3359C1.47135 16.0651 1.21094 15.7344 1.02344 15.3438C0.835938 14.9479 0.742188 14.4974 0.742188 13.9922H2.1875C2.1875 14.388 2.27344 14.7344 2.44531 15.0312C2.6224 15.3281 2.8724 15.5599 3.19531 15.7266C3.52344 15.888 3.90885 15.9688 4.35156 15.9688C4.79427 15.9688 5.17448 15.8932 5.49219 15.7422C5.8151 15.5859 6.0625 15.3516 6.23438 15.0391C6.41146 14.7266 6.5 14.3333 6.5 13.8594C6.5 13.3854 6.40104 12.9974 6.20312 12.6953C6.00521 12.388 5.72396 12.1615 5.35938 12.0156C5 11.8646 4.57552 11.7891 4.08594 11.7891H3.05469ZM11.4141 15.2812V16.4453C11.4141 16.9193 11.2943 17.4193 11.0547 17.9453C10.8151 18.4766 10.4792 18.9193 10.0469 19.2734L9.22656 18.7031C9.39323 18.474 9.53385 18.2396 9.64844 18C9.76302 17.7656 9.84896 17.5208 9.90625 17.2656C9.96875 17.0156 10 16.75 10 16.4688V15.2812H11.4141ZM14.9297 11.5859L13.7734 11.2891L14.3438 5.625H20.1797V6.96094H15.5703L15.2266 10.0547C15.4349 9.9349 15.6979 9.82292 16.0156 9.71875C16.3385 9.61458 16.7083 9.5625 17.125 9.5625C17.651 9.5625 18.1224 9.65365 18.5391 9.83594C18.9557 10.013 19.3099 10.2682 19.6016 10.6016C19.8984 10.9349 20.125 11.3359 20.2812 11.8047C20.4375 12.2734 20.5156 12.7969 20.5156 13.375C20.5156 13.9219 20.4401 14.4245 20.2891 14.8828C20.1432 15.3411 19.9219 15.7422 19.625 16.0859C19.3281 16.4245 18.9531 16.6875 18.5 16.875C18.0521 17.0625 17.5234 17.1562 16.9141 17.1562C16.4557 17.1562 16.0208 17.0938 15.6094 16.9688C15.2031 16.8385 14.8385 16.6432 14.5156 16.3828C14.1979 16.1172 13.9375 15.7891 13.7344 15.3984C13.5365 15.0026 13.4115 14.5391 13.3594 14.0078H14.7344C14.7969 14.4349 14.9219 14.7943 15.1094 15.0859C15.2969 15.3776 15.5417 15.599 15.8438 15.75C16.151 15.8958 16.5078 15.9688 16.9141 15.9688C17.2578 15.9688 17.5625 15.9089 17.8281 15.7891C18.0938 15.6693 18.3177 15.4974 18.5 15.2734C18.6823 15.0495 18.8203 14.7786 18.9141 14.4609C19.013 14.1432 19.0625 13.7865 19.0625 13.3906C19.0625 13.0312 19.013 12.6979 18.9141 12.3906C18.8151 12.0833 18.6667 11.8151 18.4688 11.5859C18.276 11.3568 18.0391 11.1797 17.7578 11.0547C17.4766 10.9245 17.1536 10.8594 16.7891 10.8594C16.3047 10.8594 15.9375 10.9245 15.6875 11.0547C15.4427 11.1849 15.1901 11.362 14.9297 11.5859ZM27.9531 5.625V17H26.4453V5.625H27.9531ZM34.8203 5.625L30.0938 10.9297L27.4375 13.6875L27.1875 12.0781L29.1875 9.875L33.0078 5.625H34.8203ZM33.3672 17L29.1562 11.4531L30.0547 10.2578L35.1641 17H33.3672ZM44.6484 11.3359V15.5C44.5078 15.7083 44.2839 15.9427 43.9766 16.2031C43.6693 16.4583 43.2448 16.6823 42.7031 16.875C42.1667 17.0625 41.474 17.1562 40.625 17.1562C39.9323 17.1562 39.2943 17.0365 38.7109 16.7969C38.1328 16.5521 37.6302 16.1979 37.2031 15.7344C36.7812 15.2656 36.4531 14.6979 36.2188 14.0312C35.9896 13.3594 35.875 12.599 35.875 11.75V10.8672C35.875 10.0182 35.974 9.26042 36.1719 8.59375C36.375 7.92708 36.6719 7.36198 37.0625 6.89844C37.4531 6.42969 37.9323 6.07552 38.5 5.83594C39.0677 5.59115 39.7188 5.46875 40.4531 5.46875C41.3229 5.46875 42.0495 5.61979 42.6328 5.92188C43.2214 6.21875 43.6797 6.63021 44.0078 7.15625C44.3411 7.68229 44.5547 8.28125 44.6484 8.95312H43.1406C43.0729 8.54167 42.9375 8.16667 42.7344 7.82812C42.5365 7.48958 42.2526 7.21875 41.8828 7.01562C41.513 6.80729 41.0365 6.70312 40.4531 6.70312C39.9271 6.70312 39.4714 6.79948 39.0859 6.99219C38.7005 7.1849 38.3828 7.46094 38.1328 7.82031C37.8828 8.17969 37.6953 8.61458 37.5703 9.125C37.4505 9.63542 37.3906 10.2109 37.3906 10.8516V11.75C37.3906 12.4062 37.4661 12.9922 37.6172 13.5078C37.7734 14.0234 37.9948 14.4635 38.2812 14.8281C38.5677 15.1875 38.9089 15.4609 39.3047 15.6484C39.7057 15.8359 40.1484 15.9297 40.6328 15.9297C41.1693 15.9297 41.6042 15.8854 41.9375 15.7969C42.2708 15.7031 42.5312 15.5938 42.7188 15.4688C42.9062 15.3385 43.0495 15.2161 43.1484 15.1016V12.5547H40.5156V11.3359H44.6484Z" fill="black"/>
<path d="M63.9258 6.6142C63.8243 6.36985 63.6301 6.17568 63.3858 6.0742C63.2656 6.02296 63.1365 5.99578 63.0058 5.9942H57.0058C56.7406 5.9942 56.4862 6.09956 56.2987 6.2871C56.1112 6.47463 56.0058 6.72899 56.0058 6.9942C56.0058 7.25942 56.1112 7.51377 56.2987 7.70131C56.4862 7.88884 56.7406 7.9942 57.0058 7.9942H60.5958L52.2958 16.2842C52.2021 16.3772 52.1277 16.4878 52.0769 16.6096C52.0261 16.7315 52 16.8622 52 16.9942C52 17.1262 52.0261 17.2569 52.0769 17.3788C52.1277 17.5006 52.2021 17.6112 52.2958 17.7042C52.3888 17.7979 52.4994 17.8723 52.6212 17.9231C52.7431 17.9739 52.8738 18 53.0058 18C53.1378 18 53.2685 17.9739 53.3904 17.9231C53.5122 17.8723 53.6228 17.7979 53.7158 17.7042L62.0058 9.4042V12.9942C62.0058 13.2594 62.1112 13.5138 62.2987 13.7013C62.4862 13.8888 62.7406 13.9942 63.0058 13.9942C63.271 13.9942 63.5254 13.8888 63.7129 13.7013C63.9004 13.5138 64.0058 13.2594 64.0058 12.9942V6.9942C64.0042 6.86352 63.977 6.73442 63.9258 6.6142Z" fill="#49970C"/>
</g>
<defs>
<clipPath id="clip0_1367_329">
<rect width="70" height="24" fill="white"/>
</clipPath>
</defs>
</svg>
